<?xml version="1.0" encoding="UTF-8"?>
<svg id="Layer_2" data-name="Layer 2" xmlns="http://www.w3.org/2000/svg" viewBox="0 0 55.34 50.87">
  <defs>
    <style>
      .cls-1 {
        fill: #ef6a6a;
        fill-rule: evenodd;
      }
    </style>
  </defs>
  <g id="Layer_1-2" data-name="Layer 1">
    <path class="cls-1" d="m43.3,26.93c-6.65,0-12.04,5.36-12.04,11.97s5.39,11.97,12.04,11.97,12.04-5.36,12.04-11.97-5.39-11.97-12.04-11.97Zm-31.27,0c-6.65,0-12.04,5.36-12.04,11.97s5.39,11.97,12.04,11.97,12.04-5.36,12.04-11.97-5.39-11.97-12.04-11.97Zm27.67-14.96c0,6.61-5.39,11.97-12.03,11.97s-12.04-5.36-12.04-11.97S21.02,0,27.67,0s12.03,5.36,12.03,11.97Z"/>
  </g>
</svg>