<?xml version="1.0" encoding="UTF-8"?>
<svg id="Layer_2" data-name="Layer 2" xmlns="http://www.w3.org/2000/svg" xmlns:xlink="http://www.w3.org/1999/xlink" viewBox="0 0 91.2 32.02">
  <defs>
    <style>
      .cls-1 {
        fill: #fff;
      }

      .cls-2 {
        mask: url(#mask);
      }

      .cls-3 {
        fill: url(#linear-gradient);
      }
    </style>
    <mask id="mask" x="0" y="0" width="91.2" height="32.02" maskUnits="userSpaceOnUse">
      <g id="mask0_4017_42309" data-name="mask0 4017 42309">
        <path class="cls-1" d="m90.18,21.39c-.11,0-.34.11-.34.34-.9,2.6-2.15,4.19-3.17,4.19-.57,0-.79-.68-.79-1.7,0-2.6,1.58-8.15,2.38-10.64.11-.34.11-.57.11-.79,0-.68-.45-1.13-1.36-1.13-1.02,0-2.26.45-3.28,2.38-.34-1.7-1.58-2.49-3.17-2.49-1.92,0-3.73,1.24-5.2,3.17s-3.28,2.6-4.53,2.26c.9-2.38,1.36-4.07,1.36-5.32,0-2.04-1.02-3.28-2.6-3.28-2.49,0-3.85,2.38-3.85,4.87,0,1.92.9,3.85,2.72,4.87-1.58,3.62-3.96,6.9-4.75,6.9-1.13,0-1.47-5.54-1.36-9.62,0-2.26.23-2.38.23-3.06,0-.45-.23-.68-1.24-.68-2.38,0-3.17,2.04-3.28,4.41,0,.9-.23,1.81-.45,2.6-1.02,3.62-3.06,6.34-4.41,6.34-.68,0-.79-.68-.79-1.47,0-2.6,1.47-5.88,1.47-8.6,0-2.04-.9-3.28-2.6-3.28-1.92,0-4.64,2.38-7.02,6.79.79-3.4,1.13-6.68-1.24-6.68-.57,0-1.02.11-1.47.34-.34.11-.57.45-.45.79.23,3.62-2.94,12.79-5.88,12.79-.57,0-.79-.57-.79-1.47,0-2.6,1.58-8.03,2.38-10.64.11-.34.11-.57.11-.9,0-.68-.45-1.02-1.36-1.02-1.02,0-2.26.45-3.28,2.38-.34-1.7-1.58-2.49-3.17-2.49-2.72,0-5.66,2.83-6.9,6.45-1.7,4.87-5.32,9.62-10.07,9.62-4.3,0-6.56-3.62-6.56-9.28-.57-8.03,5.43-14.71,9.84-14.71,2.15,0,3.17,1.36,3.17,3.4,0,2.49-1.36,3.73-1.36,4.64,0,.34.23.57.68.57,1.92,0,4.19-2.26,4.19-5.43s-2.49-5.2-6.9-5.2C7.81,1.58.34,8.94.34,18.44c0,7.58,3.73,12.11,10.18,12.11,4.41,0,8.26-3.4,10.3-7.47.23,3.28,1.7,5.09,4.07,5.09,2.04,0,3.73-1.24,4.98-3.4.45,2.26,1.81,3.28,3.4,3.28,1.92,0,3.51-1.24,5.09-3.51,0,1.81.34,3.4,1.92,3.4.68,0,1.58-.11,1.7-.79,1.58-6.68,5.66-12.11,6.79-12.11.34,0,.45.34.45.79,0,1.81-1.24,5.54-1.24,7.92,0,2.6,1.13,4.3,3.4,4.3,2.49,0,5.09-3.06,6.68-7.58.57,4.19,1.7,7.58,3.51,7.58,2.15,0,6.11-4.64,8.49-9.5.9.11,2.38.11,3.62-.9-.57,1.47-.9,3.06-.9,4.64,0,4.53,2.15,5.77,4.07,5.77,2.04,0,3.73-1.24,4.98-3.4.45,1.92,1.47,3.28,3.4,3.28,3.06,0,5.77-3.17,5.77-5.66-.11-.45-.45-.9-.79-.9Zm-63.48,4.3c-1.24,0-1.7-1.24-1.7-3.06,0-3.17,2.15-8.6,4.53-8.6,1.02,0,1.36,1.24,1.36,2.72,0,3.17-2.04,8.94-4.19,8.94Zm42.32-9.62c-.79-.9-1.02-2.04-1.02-3.17,0-1.36.45-2.38,1.02-2.38s.79.57.79,1.36c0,1.24-.45,3.17-.79,4.19Zm9.62,9.62c-1.24,0-1.7-1.47-1.7-3.06,0-3.06,2.15-8.6,4.53-8.6,1.02,0,1.36,1.24,1.36,2.72,0,3.17-2.04,8.94-4.19,8.94Z"/>
      </g>
    </mask>
    <linearGradient id="linear-gradient" x1="19.53" y1="41.27" x2="65.51" y2="-7.72" gradientTransform="translate(0 29.51) scale(1 -1)" gradientUnits="userSpaceOnUse">
      <stop offset="0" stop-color="#25bec8"/>
      <stop offset=".91" stop-color="#6a52a2"/>
      <stop offset="1" stop-color="#6a52a2"/>
    </linearGradient>
  </defs>
  <g id="Layer_1-2" data-name="Layer 1">
    <g class="cls-2">
      <path class="cls-3" d="m91.2,0H0v32.02h91.2V0Z"/>
    </g>
  </g>
</svg>