<?xml version="1.0" encoding="UTF-8"?>
<svg id="Layer_2" data-name="Layer 2" xmlns="http://www.w3.org/2000/svg" viewBox="0 0 61 47.22">
  <defs>
    <style>
      .cls-1 {
        fill: #5b66af;
      }
    </style>
  </defs>
  <g id="Layer_1-2" data-name="Layer 1">
    <path class="cls-1" d="m51.67,3.95c-3.95-1.85-8.17-3.19-12.58-3.95-.54.98-1.18,2.3-1.61,3.35-4.69-.71-9.34-.71-13.95,0-.44-1.05-1.08-2.37-1.63-3.35-4.42.76-8.65,2.11-12.59,3.96C1.34,16-.82,27.74.26,39.31c5.28,3.94,10.4,6.34,15.43,7.91,1.24-1.71,2.35-3.53,3.31-5.44-1.82-.69-3.56-1.54-5.21-2.53.44-.32.86-.66,1.28-1.01,10.04,4.69,20.94,4.69,30.86,0,.42.35.84.69,1.28,1.01-1.65.99-3.4,1.85-5.22,2.54.95,1.91,2.06,3.73,3.31,5.44,5.04-1.57,10.16-3.96,15.44-7.91,1.27-13.41-2.16-25.04-9.07-35.35Zm-31.31,28.24c-3.01,0-5.48-2.81-5.48-6.24s2.42-6.24,5.48-6.24,5.54,2.81,5.48,6.24c0,3.43-2.42,6.24-5.48,6.24Zm20.27,0c-3.01,0-5.48-2.81-5.48-6.24s2.42-6.24,5.48-6.24,5.54,2.81,5.48,6.24c0,3.43-2.42,6.24-5.48,6.24Z"/>
  </g>
</svg>