<?xml version="1.0" encoding="UTF-8"?>
<svg id="Layer_2" data-name="Layer 2" xmlns="http://www.w3.org/2000/svg" viewBox="0 0 40 40">
  <defs>
    <style>
      .cls-1 {
        fill: #fff;
        fill-rule: evenodd;
      }

      .cls-2 {
        fill: #08a5be;
      }
    </style>
  </defs>
  <g id="Layer_1-2" data-name="Layer 1">
    <path class="cls-2" d="m20,0h0c11.05,0,20,8.95,20,20h0c0,11.05-8.95,20-20,20h0C8.95,40,0,31.05,0,20h0C0,8.95,8.95,0,20,0Z"/>
    <path class="cls-1" d="m24.73,27.25c.67.8,1.47,1.73,1.47,1.73,4.66-.14,6.59-2.94,6.78-3.22.01-.02.02-.02.02-.02,0-6.89-3.21-12.49-3.21-12.49-3.19-2.31-6.24-2.25-6.24-2.25l-.31.35c3.79,1.1,5.55,2.72,5.55,2.72-2.32-1.21-4.59-1.82-6.71-2.05-1.6-.17-3.14-.13-4.5.04-.12,0-.22.02-.33.03-.02,0-.03,0-.05,0-.78.09-2.67.35-5.06,1.36-.82.35-1.32.61-1.32.61,0,0,1.83-1.71,5.84-2.81l-.22-.26s-3.03-.06-6.24,2.25c0,0-3.21,5.6-3.21,12.49,0,0,1.87,3.11,6.79,3.26,0,0,.82-.95,1.49-1.77-2.83-.82-3.9-2.53-3.9-2.53,0,0,.22.15.62.37.01,0,.03,0,.05.02.01,0,.03.02.04.02.03.02.07.04.1.05.03.02.07.03.1.05.56.3,1.11.54,1.63.73.91.37,2.01.69,3.27.93,1.67.3,3.63.41,5.77.02,1.05-.19,2.12-.48,3.23-.93.78-.28,1.65-.69,2.56-1.27,0,0-1.11,1.75-4.03,2.55Zm-3.03-5.9c0-1.32,1-2.38,2.27-2.38s2.27,1.06,2.27,2.38-1,2.38-2.27,2.38-2.27-1.06-2.27-2.38Zm-8.13,0c0-1.32,1-2.38,2.27-2.38s2.29,1.06,2.27,2.38c0,1.32-1,2.38-2.27,2.38s-2.27-1.06-2.27-2.38Z"/>
  </g>
</svg>