<?xml version="1.0" encoding="UTF-8"?>
<svg id="Layer_2" data-name="Layer 2" xmlns="http://www.w3.org/2000/svg" viewBox="0 0 57 56">
  <g id="Layer_1-2" data-name="Layer 1">
    <path d="m28.5,0C12.76,0,0,12.85,0,28.71c0,12.68,8.17,23.44,19.49,27.24,1.42.27,1.88-.62,1.88-1.38v-5.34c-7.93,1.74-9.58-3.39-9.58-3.39-1.3-3.32-3.17-4.2-3.17-4.2-2.59-1.78.2-1.74.2-1.74,2.86.2,4.37,2.96,4.37,2.96,2.54,4.39,6.67,3.12,8.29,2.39.25-1.85.99-3.12,1.81-3.84-6.33-.73-12.98-3.19-12.98-14.19,0-3.14,1.11-5.7,2.94-7.71-.29-.72-1.27-3.65.28-7.6,0,0,2.39-.77,7.84,2.94,2.27-.64,4.71-.95,7.13-.97,2.42.01,4.86.33,7.14.97,5.44-3.71,7.83-2.94,7.83-2.94,1.55,3.95.57,6.88.28,7.6,1.83,2.01,2.93,4.57,2.93,7.71,0,11.03-6.67,13.45-13.01,14.16,1.02.89,1.95,2.64,1.95,5.32v7.88c0,.76.46,1.66,1.9,1.38,11.32-3.8,19.47-14.56,19.47-27.24C57,12.85,44.24,0,28.5,0Z"/>
  </g>
</svg>