<?xml version="1.0" encoding="UTF-8"?>
<svg id="Layer_2" data-name="Layer 2" xmlns="http://www.w3.org/2000/svg" viewBox="0 0 42.91 47.11">
  <defs>
    <style>
      .cls-1 {
        fill: #e27425;
      }

      .cls-2 {
        fill: #f6ab1b;
      }
    </style>
  </defs>
  <g id="Layer_1-2" data-name="Layer 1">
    <path class="cls-2" d="m31.05,5.62v35.33c0,3.96,2.88,6.16,5.93,6.16,2.82,0,5.93-1.87,5.93-6.16V5.89c0-3.62-2.82-5.89-5.93-5.89s-5.93,2.5-5.93,5.62Z"/>
    <path class="cls-1" d="m15.53,23.56v17.4c0,3.96,2.88,6.16,5.93,6.16,2.82,0,5.93-1.87,5.93-6.16v-17.13c0-3.62-2.82-5.89-5.93-5.89s-5.93,2.5-5.93,5.62Z"/>
    <path class="cls-1" d="m11.86,41.49c0,3.1-2.66,5.62-5.93,5.62s-5.93-2.52-5.93-5.62,2.66-5.62,5.93-5.62,5.93,2.52,5.93,5.62Z"/>
  </g>
</svg>