<?xml version="1.0" encoding="UTF-8"?>
<svg id="Layer_2" data-name="Layer 2" xmlns="http://www.w3.org/2000/svg" viewBox="0 0 60.29 63.12">
  <defs>
    <style>
      .cls-1 {
        fill: #f4795b;
      }
    </style>
  </defs>
  <g id="Layer_1-2" data-name="Layer 1">
    <path class="cls-1" d="m46.29,20.78v-7.52c.99-.46,1.83-1.2,2.43-2.12.59-.92.91-2,.91-3.09v-.17c0-3.2-2.59-5.79-5.79-5.79h-.17c-3.2,0-5.79,2.59-5.79,5.79v.17c0,1.1.32,2.17.91,3.09.59.92,1.43,1.66,2.42,2.12v7.52c-2.85.44-5.54,1.62-7.79,3.43L12.81,8.16c.15-.53.22-1.08.23-1.62,0-1.29-.38-2.55-1.09-3.63-.71-1.07-1.73-1.91-2.92-2.41C7.84,0,6.53-.13,5.26.12c-1.27.25-2.43.87-3.34,1.78C1,2.81.38,3.97.13,5.24-.13,6.5,0,7.82.49,9.01c.49,1.19,1.33,2.21,2.4,2.93,1.07.72,2.33,1.1,3.62,1.1,1.13,0,2.24-.31,3.21-.87l20.3,15.8c-3.73,5.64-3.63,12.98.25,18.52l-6.17,6.18c-.5-.16-1.02-.24-1.54-.25-2.96,0-5.35,2.4-5.35,5.36,0,2.96,2.4,5.35,5.35,5.35,2.96,0,5.35-2.39,5.36-5.35,0-.52-.09-1.04-.25-1.54l6.11-6.11c5.46,4.2,12.95,4.56,18.79.91,5.84-3.66,8.78-10.56,7.38-17.3-1.4-6.74-6.85-11.9-13.65-12.94Zm-2.53,24.72c-1.13.03-2.25-.17-3.3-.58-1.05-.41-2.01-1.03-2.82-1.82-.81-.79-1.45-1.73-1.89-2.77-.44-1.04-.67-2.16-.67-3.29s.23-2.25.67-3.29c.44-1.04,1.08-1.98,1.89-2.77.81-.79,1.77-1.4,2.82-1.82,1.05-.41,2.17-.61,3.3-.58,4.55.16,8.15,3.89,8.15,8.44,0,4.55-3.6,8.28-8.15,8.45"/>
  </g>
</svg>