<?xml version="1.0" encoding="UTF-8"?>
<svg id="Layer_2" data-name="Layer 2" xmlns="http://www.w3.org/2000/svg" viewBox="0 0 40 40">
  <defs>
    <style>
      .cls-1 {
        fill: #fff;
      }

      .cls-2 {
        fill: #08a5be;
      }
    </style>
  </defs>
  <g id="Layer_1-2" data-name="Layer 1">
    <path class="cls-2" d="m20,0h0c11.05,0,20,8.95,20,20h0c0,11.05-8.95,20-20,20h0C8.95,40,0,31.05,0,20h0C0,8.95,8.95,0,20,0Z"/>
    <path class="cls-1" d="m10.96,14.67c.03-.28-.09-.55-.32-.74l-2.33-2.55v-.38h7.25l5.6,11.14,4.93-11.14h6.91v.38l-2,1.74c-.17.12-.26.31-.22.51v12.75c-.04.19.05.39.22.51l1.95,1.74v.38h-9.8v-.38l2.02-1.78c.2-.18.2-.23.2-.51v-10.31l-5.61,12.93h-.76l-6.54-12.93v8.67c-.05.36.08.73.36.99l2.63,2.89v.38h-7.45v-.38l2.63-2.89c.28-.26.41-.63.34-.99v-10.02Z"/>
  </g>
</svg>