<?xml version="1.0" encoding="UTF-8"?>
<svg id="Layer_2" data-name="Layer 2" xmlns="http://www.w3.org/2000/svg" viewBox="0 0 49.26 29.63">
  <defs>
    <style>
      .cls-1 {
        fill: #4eb748;
      }

      .cls-2 {
        fill: #ef415a;
      }

      .cls-3 {
        fill: #ffcc05;
      }
    </style>
  </defs>
  <g id="Layer_1-2" data-name="Layer 1">
    <path class="cls-2" d="m6,29.63c-1.07,0-2.12-.29-3.05-.84-.92-.55-1.68-1.33-2.2-2.28C.23,25.57-.03,24.51,0,23.43c.03-1.08.34-2.13.91-3.04L11.72,3.05c.85-1.36,2.19-2.32,3.75-2.68.77-.18,1.56-.2,2.34-.07.78.13,1.52.42,2.19.84.67.42,1.25.97,1.71,1.62.46.65.78,1.38.96,2.15.18.77.2,1.57.07,2.35-.13.78-.41,1.53-.83,2.2l-10.81,17.34c-.54.87-1.29,1.58-2.18,2.08-.89.5-1.89.75-2.91.75Z"/>
    <path class="cls-3" d="m24.62,29.63c-1.07,0-2.13-.29-3.05-.84s-1.69-1.33-2.21-2.28c-.52-.94-.78-2.01-.75-3.09.03-1.08.34-2.13.91-3.04L30.34,3.05c.4-.71.94-1.33,1.59-1.82.64-.49,1.38-.85,2.17-1.05.79-.2,1.6-.24,2.4-.11.8.13,1.57.42,2.25.85.69.43,1.28,1,1.74,1.67.46.67.79,1.42.95,2.22.16.8.17,1.62,0,2.42-.16.8-.48,1.55-.94,2.23l-10.8,17.34c-.54.87-1.29,1.58-2.18,2.08-.89.5-1.89.75-2.91.75Z"/>
    <path class="cls-1" d="m43.24,29.63c3.32,0,6.02-2.64,6.02-5.89s-2.69-5.89-6.02-5.89-6.01,2.64-6.01,5.89,2.69,5.89,6.01,5.89Z"/>
  </g>
</svg>