<?xml version="1.0" encoding="UTF-8"?>
<svg id="Layer_2" data-name="Layer 2" xmlns="http://www.w3.org/2000/svg" viewBox="0 0 56.54 56.37">
  <defs>
    <style>
      .cls-1 {
        fill: #39c5ef;
      }

      .cls-2 {
        fill: #e01f5b;
      }

      .cls-3 {
        fill: #2db77d;
      }

      .cls-4 {
        fill: #ebb22c;
      }
    </style>
  </defs>
  <g id="Layer_1-2" data-name="Layer 1">
    <path class="cls-2" d="m11.92,35.64c0,3.28-2.65,5.92-5.94,5.92S.04,38.91.04,35.64s2.65-5.92,5.94-5.92h5.94v5.92Zm2.97,0c0-3.28,2.65-5.92,5.94-5.92s5.94,2.65,5.94,5.92v14.81c0,3.28-2.65,5.92-5.94,5.92s-5.94-2.65-5.94-5.92v-14.81Z"/>
    <path class="cls-1" d="m20.83,11.85c-3.28,0-5.94-2.65-5.94-5.92S17.54,0,20.83,0s5.94,2.65,5.94,5.92v5.92h-5.94Zm0,3.01c3.28,0,5.94,2.65,5.94,5.92s-2.65,5.92-5.94,5.92H5.94c-3.28,0-5.94-2.65-5.94-5.92s2.65-5.92,5.94-5.92h14.89Z"/>
    <path class="cls-3" d="m44.62,20.78c0-3.28,2.65-5.92,5.94-5.92s5.94,2.65,5.94,5.92-2.65,5.92-5.94,5.92h-5.94v-5.92Zm-2.97,0c0,3.28-2.65,5.92-5.94,5.92s-5.94-2.65-5.94-5.92V5.92c0-3.28,2.65-5.92,5.94-5.92s5.94,2.65,5.94,5.92v14.86Z"/>
    <path class="cls-4" d="m35.71,44.52c3.28,0,5.94,2.65,5.94,5.92s-2.65,5.92-5.94,5.92-5.94-2.65-5.94-5.92v-5.92h5.94Zm0-2.96c-3.28,0-5.94-2.65-5.94-5.92s2.65-5.92,5.94-5.92h14.89c3.28,0,5.94,2.65,5.94,5.92s-2.65,5.92-5.94,5.92h-14.89Z"/>
  </g>
</svg>