<?xml version="1.0" encoding="UTF-8"?>
<svg id="Layer_2" data-name="Layer 2" xmlns="http://www.w3.org/2000/svg" viewBox="0 0 40 40">
  <defs>
    <style>
      .cls-1 {
        fill: #fff;
      }

      .cls-2 {
        fill: #08a5be;
      }
    </style>
  </defs>
  <g id="Layer_1-2" data-name="Layer 1">
    <path class="cls-2" d="m20,0h0c11.05,0,20,8.95,20,20h0c0,11.05-8.95,20-20,20h0C8.95,40,0,31.05,0,20h0C0,8.95,8.95,0,20,0Z"/>
    <path class="cls-1" d="m8.47,18.71l14.3-5.93c1.41-.62,6.2-2.6,6.2-2.6,0,0,2.21-.86,2.02,1.24-.06.86-.56,3.89-1.05,7.17l-1.53,9.71s-.12,1.42-1.17,1.67c-1.05.25-2.76-.86-3.07-1.11-.25-.18-4.6-2.97-6.2-4.33-.53-.36-.67-1.09-.31-1.62.1-.14.22-.26.37-.35,2.21-2.04,4.85-4.57,6.44-6.18.74-.74,1.48-2.47-1.6-.37l-8.64,5.85c-.9.41-1.91.43-2.83.06-1.84-.56-3.98-1.3-3.98-1.3,0,0-1.48-.93,1.04-1.92Z"/>
  </g>
</svg>