<?xml version="1.0" encoding="UTF-8"?>
<svg id="Layer_2" data-name="Layer 2" xmlns="http://www.w3.org/2000/svg" viewBox="0 0 40 40">
  <defs>
    <style>
      .cls-1 {
        fill: #fff;
        fill-rule: evenodd;
      }

      .cls-2 {
        fill: #08a5be;
      }
    </style>
  </defs>
  <g id="Layer_1-2" data-name="Layer 1">
    <path class="cls-2" d="m20,0h0c11.05,0,20,8.95,20,20h0c0,11.05-8.95,20-20,20h0C8.95,40,0,31.05,0,20h0C0,8.95,8.95,0,20,0Z"/>
    <path class="cls-1" d="m32.26,11.42c-.76.44-2.49,1.07-3.35,1.07h0c-.98-.92-2.35-1.49-3.88-1.49-2.96,0-5.36,2.16-5.36,4.82,0,.37.05.73.14,1.08h0c-4.02-.09-8.41-1.91-11.06-5.01-1.63,2.53-.22,5.35,1.63,6.37-.63.04-1.79-.07-2.34-.55-.04,1.68.86,3.91,4.14,4.72-.63.31-1.75.22-2.23.15.17,1.42,2.38,3.27,4.79,3.27-.86.9-4.1,2.52-7.73,2,2.47,1.35,5.35,2.13,8.39,2.13,8.65,0,15.37-6.31,15.01-14.09,0,0,0-.02,0-.03,0-.02,0-.04,0-.06,0-.02,0-.05,0-.07.79-.48,1.84-1.34,2.6-2.47-.44.22-1.75.65-2.97.76.78-.38,1.95-1.63,2.23-2.62Z"/>
  </g>
</svg>